<svg xmlns="http://www.w3.org/2000/svg" width="25" height="25" fill="none" viewBox="0 0 25 25">
    <circle cx="12.5" cy="12.5" r="12.5" fill="#fff"/>
    <path fill="#FF7272" fill-rule="evenodd" d="M12.49 3.571c-4.928 0-8.919 4-8.919 8.929 0 4.928 3.991 8.928 8.92 8.928 4.937 0 8.937-4 8.937-8.928 0-4.929-4-8.929-8.937-8.929zM9.376 8.928c-.74 0-1.34.6-1.34 1.34 0 .74.6 1.339 1.34 1.339.74 0 1.34-.6 1.34-1.34 0-.739-.6-1.339-1.34-1.339zm6.25 0c-.74 0-1.34.6-1.34 1.34 0 .74.6 1.339 1.34 1.339.74 0 1.34-.6 1.34-1.34 0-.739-.6-1.339-1.34-1.339zm-6.206 5.358c.625 1.062 1.76 1.785 3.08 1.785 1.322 0 2.456-.723 3.081-1.785h1.491c-.714 1.83-2.49 3.125-4.571 3.125-2.08 0-3.857-1.295-4.572-3.125H9.42zM5.357 12.5c0 3.946 3.196 7.143 7.143 7.143 3.946 0 7.143-3.197 7.143-7.143 0-3.947-3.197-7.143-7.143-7.143-3.947 0-7.143 3.196-7.143 7.143z" clip-rule="evenodd"/>
</svg>
