<svg xmlns="http://www.w3.org/2000/svg" width="70" height="70" fill="none" viewBox="0 0 70 70">
    <path fill="#fff" d="M19.832 19.396s6.563-8.604 15.605-8.604c9.041 0 15.604 8.604 15.604 8.604h18.083L35.437 2.187 1.748 19.396s25.813 13.562 39.375 22.896c9.917 6.854 9.917 10.208 9.917 10.208s-6.563 8.604-15.604 8.604c-9.042 0-15.605-8.604-15.605-8.604H1.75l33.688 17.208L69.27 52.5s-26.396-14-39.959-23.188c-10.791-7.145-9.479-9.916-9.479-9.916z"/>
    <path fill="#fff" d="M51.187 21.875l-15.75 19.542L1.748 21.875v28.146h18.083v-14l15.605 9.187 15.75-19.687v14.291l18.083 9.771V21.875H51.187z"/>
</svg>
